#!OML:ASF H:\Dans Jumps\Project 1\Capture day 1\Session 1\subject.ASF
:FULLY-SPECIFIED
:DEGREES
408
root 0.471401 17.6518 5.88788 4.33656 3.01041 -1.88709
lowerback 0.397678 0.202804 1.27013
upperback 2.82271 0.216614 1.81743
thorax 2.67102 0.114804 1.15839
lowerneck -12.1348 -1.09331 -2.0541
upperneck 30.6595 -1.39635 1.1577
head 12.1044 -0.700666 0.6038
rclavicle -1.12313e-014 -3.65764e-014
rhumerus -20.7553 -20.929 -82.9401
rradius 20.5024
rwrist 41.6298
rhand -20.788 -25.9947
rfingers 7.12502
rthumb 5.57901 -55.9013
lclavicle -1.12313e-014 -3.65764e-014
lhumerus -21.45 5.87519 88.85
lradius 13.4438
lwrist -1.09166
lhand -25.8814 -6.45623
lfingers 7.12502
lthumb 0.660268 23.5225
rfemur -16.2129 -2.13773 21.1385
rtibia 23.4241
rfoot -10.6803 -0.904563
rtoes 19.5549
lfemur -15.4032 5.25542 -16.6066
ltibia 22.198
lfoot -9.08352 1.96677
ltoes -4.27347
409
root 0.476459 17.6548 5.90466 4.35806 2.96429 -1.91531
lowerback 0.359585 0.1943 1.25377
upperback 2.81278 0.204487 1.82721
thorax 2.68228 0.108237 1.17752
lowerneck -12.151 -1.07867 -2.04321
upperneck 30.5187 -1.3717 1.14023
head 12.0504 -0.690768 0.598111
rclavicle -1.98785e-016 -3.57812e-015
rhumerus -21.0817 -21.0741 -82.6874
rradius 20.3322
rwrist 41.9288
rhand -20.5064 -25.9089
rfingers 7.12502
rthumb 5.85091 -55.8081
lclavicle -1.98785e-016 -3.57812e-015
lhumerus -21.2873 5.76218 88.9789
lradius 13.5084
lwrist -0.934474
lhand -25.9461 -6.48492
lfingers 7.12502
lthumb 0.597818 23.494
rfemur -16.1073 -2.18139 21.1565
rtibia 23.2885
rfoot -10.677 -0.829698
rtoes 19.5502
lfemur -15.3087 5.24125 -16.5851
ltibia 22.1121
lfoot -9.08255 2.01904
ltoes -4.24791
410
root 0.481425 17.6577 5.92133 4.37443 2.91893 -1.95094
lowerback 0.328189 0.185791 1.2442
upperback 2.80297 0.192415 1.83838
thorax 2.68992 0.101835 1.19422
lowerneck -12.1629 -1.06495 -2.03563
upperneck 30.3704 -1.34843 1.1254
head 11.9929 -0.681521 0.593807
rclavicle 1.39149e-015 9.93923e-015
rhumerus -21.4112 -21.1823 -82.4427
rradius 20.1856
rwrist 42.1378
rhand -20.2703 -25.853
rfingers 7.12502
rthumb 6.07891 -55.7458
lclavicle 1.39149e-015 9.93923e-015
lhumerus -21.1334 5.63045 89.1065
lradius 13.5758
lwrist -0.777322
lhand -26.0204 -6.54071
lfingers 7.12502
lthumb 0.525998 23.4384
rfemur -15.9958 -2.21568 21.1818
rtibia 23.1497
rfoot -10.6728 -0.763171
rtoes 19.5591
lfemur -15.2138 5.22394 -16.5549
ltibia 22.0325
lfoot -9.08307 2.07495
ltoes -4.23007
411
root 0.486232 17.6603 5.9377 4.39188 2.87305 -1.99341
lowerback 0.297805 0.177682 1.24033
upperback 2.793 0.180819 1.85038
thorax 2.69684 0.0957938 1.20858
lowerneck -12.1844 -1.05136 -2.02764
upperneck 30.2234 -1.32598 1.11267
head 11.938 -0.672279 0.590083
rclavicle -2.18663e-015 -1.07344e-014
rhumerus -21.7344 -21.2788 -82.2039
rradius 20.0513
rwrist 42.286
rhand -20.0751 -25.8256
rfingers 7.12502
rthumb 6.26734 -55.7129
lclavicle -2.18663e-015 -1.07344e-014
lhumerus -20.9882 5.47573 89.233
lradius 13.6485
lwrist -0.617896
lhand -26.0716 -6.56037
lfingers 7.12502
lthumb 0.476574 23.4188
rfemur -15.8861 -2.23693 21.2145
rtibia 23.0076
rfoot -10.6649 -0.706646
rtoes 19.5791
lfemur -15.1266 5.20381 -16.5168
ltibia 21.9606
lfoot -9.08335 2.13578
ltoes -4.22492
412
root 0.491141 17.6629 5.95395 4.41275 2.82848 -2.04371
lowerback 0.264054 0.16956 1.24799
upperback 2.78097 0.169021 1.86228
thorax 2.7036 0.089924 1.21637
lowerneck -12.2107 -1.03835 -2.02134
upperneck 30.0802 -1.30495 1.10333
head 11.886 -0.663411 0.58773
rclavicle 6.65929e-015 -1.15295e-014
rhumerus -22.0497 -21.3988 -81.9644
rradius 19.9184
rwrist 42.4175
rhand -19.9194 -25.8269
rfingers 7.12502
rthumb 6.41762 -55.7097
lclavicle 6.65929e-015 -1.15295e-014
lhumerus -20.8543 5.31075 89.3527
lradius 13.7303
lwrist -0.467227
lhand -26.101 -6.56798
lfingers 7.12502
lthumb 0.448206 23.4113
rfemur -15.7794 -2.25619 21.2549
rtibia 22.8621
rfoot -10.6571 -0.651597
rtoes 19.6016
lfemur -15.0483 5.18438 -16.4715
ltibia 21.8966
lfoot -9.08617 2.19836
ltoes -4.23021
413
root 0.496099 17.6656 5.9698 4.4431 2.7889 -2.09558
lowerback 0.212134 0.160573 1.26104
upperback 2.77604 0.155419 1.87179
thorax 2.72797 0.0833412 1.21875
lowerneck -12.2625 -1.02715 -2.0131
upperneck 29.9369 -1.28739 1.09672
head 11.8393 -0.655439 0.585497
rclavicle 3.47873e-015 1.63003e-014
rhumerus -22.3348 -21.555 -81.7304
rradius 19.7832
rwrist 42.5494
rhand -19.7993 -25.8484
rfingers 7.12502
rthumb 6.53359 -55.7276
lclavicle 3.47873e-015 1.63003e-014
lhumerus -20.7108 5.10885 89.473
lradius 13.8157
lwrist -0.292555
lhand -26.1136 -6.54557
lfingers 7.12502
lthumb 0.43602 23.4337
rfemur -15.6836 -2.27715 21.2971
rtibia 22.7156
rfoot -10.646 -0.599416
rtoes 19.6164
lfemur -14.9849 5.16483 -16.426
ltibia 21.8365
lfoot -9.08966 2.25659
ltoes -4.22466
414
root 0.501076 17.6683 5.98528 4.4818 2.7506 -2.1454
lowerback 0.157957 0.150403 1.27266
upperback 2.7637 0.140389 1.87971
thorax 2.74598 0.0760217 1.22023
lowerneck -12.2989 -1.01722 -2.01071
upperneck 29.7908 -1.2722 1.09568
head 11.7887 -0.648533 0.586087
rclavicle 5.11871e-015 2.06736e-014
rhumerus -22.6221 -21.7345 -81.4912
rradius 19.6548
rwrist 42.6873
rhand -19.714 -25.8866
rfingers 7.12502
rthumb 6.61591 -55.7632
lclavicle 5.11871e-015 2.06736e-014
lhumerus -20.5892 4.88799 89.5891
lradius 13.9105
lwrist -0.0997151
lhand -26.1039 -6.50382
lfingers 7.12502
lthumb 0.445425 23.4755
rfemur -15.5997 -2.29612 21.3376
rtibia 22.5716
rfoot -10.6327 -0.55294
rtoes 19.6101
lfemur -14.9307 5.14967 -16.3836
ltibia 21.773
lfoot -9.09011 2.30774
ltoes -4.21534
415
root 0.506174 17.6712 6.00094 4.52792 2.71518 -2.18561
lowerback 0.0952951 0.137429 1.27577
upperback 2.74712 0.121678 1.88452
thorax 2.76442 0.0667032 1.22317
lowerneck -12.3272 -1.00558 -2.00863
upperneck 29.6428 -1.25457 1.09437
head 11.7358 -0.640616 0.586985
rclavicle -5.31749e-015 7.95139e-016
rhumerus -22.9084 -21.9197 -81.2521
rradius 19.5383
rwrist 42.8185
rhand -19.6482 -25.9368
rfingers 7.12502
rthumb 6.67942 -55.8115
lclavicle -5.31749e-015 7.95139e-016
lhumerus -20.4806 4.66503 89.6966
lradius 14.0074
lwrist 0.0977165
lhand -26.1033 -6.48421
lfingers 7.12502
lthumb 0.445963 23.4951
rfemur -15.5254 -2.32387 21.3678
rtibia 22.4347
rfoot -10.6229 -0.501986
rtoes 19.5882
lfemur -14.8788 5.13893 -16.3531
ltibia 21.7008
lfoot -9.08939 2.34955
ltoes -4.19814
416
root 0.511449 17.6745 6.01658 4.58053 2.68187 -2.20616
lowerback 0.0325521 0.12142 1.25947
upperback 2.72162 0.0995066 1.88515
thorax 2.77369 0.0552358 1.23254
lowerneck -12.3436 -0.99238 -2.01124
upperneck 29.4979 -1.23394 1.09357
head 11.6818 -0.631843 0.589335
rclavicle 0 1.19271e-014
rhumerus -23.201 -22.0919 -81.0132
rradius 19.4401
rwrist 42.9269
rhand -19.5891 -25.9963
rfingers 7.12502
rthumb 6.73653 -55.8691
lclavicle 0 1.19271e-014
lhumerus -20.393 4.44905 89.7966
lradius 14.097
lwrist 0.283202
lhand -26.1175 -6.49757
lfingers 7.12502
lthumb 0.432264 23.4817
rfemur -15.4607 -2.35987 21.3762
rtibia 22.3058
rfoot -10.6149 -0.448038
rtoes 19.5456
lfemur -14.8271 5.13168 -16.3459
ltibia 21.6169
lfoot -9.08625 2.38244
ltoes -4.17805
417
root 0.516762 17.6778 6.03181 4.63501 2.64831 -2.21222
lowerback -0.0190818 0.103083 1.22877
upperback 2.68741 0.0750476 1.88183
thorax 2.76773 0.042317 1.24574
lowerneck -12.3436 -0.978099 -2.01717
upperneck 29.3512 -1.21185 1.0946
head 11.6239 -0.622585 0.59318
rclavicle 5.96354e-016 1.19271e-014
rhumerus -23.4982 -22.2575 -80.7764
rradius 19.3564
rwrist 43.022
rhand -19.5422 -26.0515
rfingers 7.12502
rthumb 6.78173 -55.9229
lclavicle 5.96354e-016 1.19271e-014
lhumerus -20.3299 4.26777 89.8806
lradius 14.1828
lwrist 0.427844
lhand -26.1399 -6.52837
lfingers 7.12502
lthumb 0.410621 23.451
rfemur -15.4026 -2.39372 21.3686
rtibia 22.1844
rfoot -10.6086 -0.397495
rtoes 19.4992
lfemur -14.7717 5.12717 -16.3551
ltibia 21.5204
lfoot -9.07934 2.40988
ltoes -4.1521
418
root 0.522012 17.6811 6.04695 4.68717 2.60877 -2.21534
lowerback -0.0619539 0.0854019 1.19433
upperback 2.64945 0.0518766 1.87732
thorax 2.75297 0.0299666 1.25978
lowerneck -12.3344 -0.964135 -2.02992
upperneck 29.2048 -1.19036 1.10108
head 11.5646 -0.613677 0.600155
rclavicle -1.07841e-014 -8.74653e-015
rhumerus -23.7952 -22.4067 -80.5466
rradius 19.2875
rwrist 43.0966
rhand -19.4925 -26.1204
rfingers 7.12502
rthumb 6.82974 -55.9903
lclavicle -1.07841e-014 -8.74653e-015
lhumerus -20.2758 4.12099 89.9476
lradius 14.2547
lwrist 0.528043
lhand -26.1716 -6.59905
lfingers 7.12502
lthumb 0.379985 23.3804
rfemur -15.3456 -2.41112 21.3575
rtibia 22.0679
rfoot -10.6043 -0.357602
rtoes 19.4472
lfemur -14.7086 5.1278 -16.3666
ltibia 21.4141
lfoot -9.07102 2.43733
ltoes -4.1269
419
root 0.527244 17.6845 6.06189 4.73827 2.56511 -2.21708
lowerback -0.10167 0.0684054 1.1595
upperback 2.61296 0.0297282 1.87104
thorax 2.73795 0.0181528 1.27223
lowerneck -12.3293 -0.94916 -2.04271
upperneck 29.0564 -1.16791 1.10947
head 11.5055 -0.604059 0.607919
rclavicle 7.95139e-016 -8.74653e-015
rhumerus -24.0739 -22.5514 -80.3289
rradius 19.2219
rwrist 43.1678
rhand -19.4461 -26.192
rfingers 7.12502
rthumb 6.87455 -56.0604
lclavicle 7.95139e-016 -8.74653e-015
lhumerus -20.22 3.99664 90.0014
lradius 14.3087
lwrist 0.59813
lhand -26.203 -6.6543
lfingers 7.12502
lthumb 0.349679 23.3252
rfemur -15.2904 -2.41628 21.3447
rtibia 21.9544
rfoot -10.598 -0.325828
rtoes 19.3942
lfemur -14.6419 5.13265 -16.3793
ltibia 21.3027
lfoot -9.06169 2.46626
ltoes -4.11197
420
root 0.532521 17.6879 6.0767 4.78757 2.5198 -2.22208
lowerback -0.142002 0.0520645 1.13148
upperback 2.58011 0.00830061 1.86316
thorax 2.72706 0.00689169 1.27924
lowerneck -12.3307 -0.932987 -2.05176
upperneck 28.9067 -1.14437 1.11734
head 11.4473 -0.593554 0.614937
rclavicle -3.97569e-016 1.98785e-015
rhumerus -24.3347 -22.6871 -80.1272
rradius 19.1612
rwrist 43.2369
rhand -19.4062 -26.2677
rfingers 7.12502
rthumb 6.91309 -56.1349
lclavicle -3.97569e-016 1.98785e-015
lhumerus -20.163 3.91067 90.038
lradius 14.3524
lwrist 0.620416
lhand -26.2211 -6.68218
lfingers 7.12502
lthumb 0.332228 23.2973
rfemur -15.2351 -2.41207 21.3352
rtibia 21.8425
rfoot -10.5915 -0.301586
rtoes 19.3365
lfemur -14.5717 5.14284 -16.3886
ltibia 21.1887
lfoot -9.05456 2.49484
ltoes -4.10166
